<?xml version="1.0" encoding="UTF-8" standalone="no"?>
<!-- Created with Inkscape (http://www.inkscape.org/) -->

<svg
   xmlns:dc="http://purl.org/dc/elements/1.1/"
   xmlns:cc="http://creativecommons.org/ns#"
   xmlns:rdf="http://www.w3.org/1999/02/22-rdf-syntax-ns#"
   xmlns:svg="http://www.w3.org/2000/svg"
   xmlns="http://www.w3.org/2000/svg"
   xmlns:sodipodi="http://sodipodi.sourceforge.net/DTD/sodipodi-0.dtd"
   xmlns:inkscape="http://www.inkscape.org/namespaces/inkscape"
   width="1024px"
   height="768px"
   id="svg2985"
   version="1.1"
   inkscape:version="0.48.1 r9760"
   sodipodi:docname="drawing.svg">
  <sodipodi:namedview
     id="base"
     pagecolor="#ffffff"
     bordercolor="#666666"
     borderopacity="1.0"
     inkscape:pageopacity="0.0"
     inkscape:pageshadow="2"
     inkscape:zoom="2.8284271"
     inkscape:cx="-55.906235"
     inkscape:cy="681.26603"
     inkscape:current-layer="g3000"
     inkscape:document-units="px"
     showgrid="true"
     inkscape:snap-bbox="true"
     inkscape:bbox-paths="true"
     inkscape:object-paths="true"
     inkscape:snap-intersection-paths="true"
     inkscape:bbox-nodes="true"
     inkscape:snap-bbox-edge-midpoints="true"
     inkscape:snap-bbox-midpoints="true"
     inkscape:object-nodes="true"
     inkscape:snap-smooth-nodes="true"
     inkscape:snap-midpoints="true"
     inkscape:snap-object-midpoints="true"
     inkscape:snap-center="true"
     inkscape:snap-page="true"
     inkscape:window-width="1364"
     inkscape:window-height="747"
     inkscape:window-x="0"
     inkscape:window-y="19"
     inkscape:window-maximized="0">
    <inkscape:grid
       id="grid2993"
       type="xygrid" />
  </sodipodi:namedview>
  <defs
     id="defs2987" />
  <metadata
     id="metadata2990">
    <rdf:RDF>
      <cc:Work
         rdf:about="">
        <dc:format>image/svg+xml</dc:format>
        <dc:type
           rdf:resource="http://purl.org/dc/dcmitype/StillImage" />
      </cc:Work>
    </rdf:RDF>
  </metadata>
  <g
     style="display:none"
     inkscape:groupmode="layer"
     inkscape:label="original-1"
     id="layer1">
    <rect
       y="23"
       x="15"
       height="20"
       width="55"
       id="rect2997"
       style="opacity:0.8;fill:#0000ff;fill-opacity:1;fill-rule:nonzero;stroke:none" />
    <path
       sodipodi:nodetypes="cscc"
       inkscape:connector-curvature="0"
       id="path3769"
       d="M 70,43 C 70,43 81,43 81,33 81,23 70,23 70,23 l 0,20"
       style="opacity:0.8;fill:#0000ff;fill-opacity:1;stroke:none" />
    <path
       transform="translate(0.49990754,2.5)"
       sodipodi:open="true"
       sodipodi:end="9.5008003"
       sodipodi:start="3.2736347"
       d="m 70.021762,30.170853 a 2.5,2.5 0 1 1 -0.01454,0.139274"
       sodipodi:ry="2.5"
       sodipodi:rx="2.5"
       sodipodi:cy="30.5"
       sodipodi:cx="72.5"
       id="path3771"
       style="opacity:0.8;fill:#0000ff;fill-opacity:1;fill-rule:nonzero;stroke:none"
       sodipodi:type="arc" />
  </g>
  <g
     id="g3801"
     inkscape:label="original-1 copy"
     inkscape:groupmode="layer"
     style="display:none">
    <rect
       style="opacity:0.8;fill:#0000ff;fill-opacity:1;fill-rule:nonzero;stroke:none"
       id="rect3803"
       width="190"
       height="30"
       x="-120"
       y="23" />
    <path
       id="path3805"
       d="m 70,23 0,30 C 70,53 85,53 85,38 85,23 70,23 70,23 z m 3.835227,11.25 c 0.225971,-0.01738 0.491132,0.01275 0.724432,0.04687 1.8664,0.272674 3.145613,2.165711 2.897727,4.21875 -0.247886,2.053039 -1.968827,3.460175 -3.835227,3.1875 -1.79289,-0.261929 -3.077705,-2.00062 -2.940341,-3.98437 l 0.04261,-0.234375 c 0.2169,-1.796409 1.529,-3.112725 3.110795,-3.234375 z"
       style="opacity:0.8;fill:#0000ff;fill-opacity:1;stroke:none"
       inkscape:connector-curvature="0" />
  </g>
  <g
     style="display:inline"
     inkscape:groupmode="layer"
     inkscape:label="original-1 copy copy"
     id="g3000">
    <rect
       y="23"
       x="-120"
       height="30"
       width="190"
       id="rect3002"
       style="opacity:0.2;fill:#0000ff;fill-opacity:1;fill-rule:nonzero;stroke:none" />
    <path
       inkscape:connector-curvature="0"
       style="opacity:0.2;fill:#0000ff;fill-opacity:1;stroke:none"
       d="m 70,23 0,30 C 70,53 85,53 85,38 85,23 70,23 70,23 z m 3.835227,11.25 c 0.225971,-0.01738 0.491132,0.01275 0.724432,0.04687 1.8664,0.272674 3.145613,2.165711 2.897727,4.21875 -0.247886,2.053039 -1.968827,3.460175 -3.835227,3.1875 -1.79289,-0.261929 -3.077705,-2.00062 -2.940341,-3.98437 l 0.04261,-0.234375 c 0.2169,-1.796409 1.529,-3.112725 3.110795,-3.234375 z"
       id="path3004" />
  </g>
  <g
     inkscape:groupmode="layer"
     inkscape:label="Web Slicer"
     id="webslicer-layer"
     style="display:none">
    <rect
       height="30"
       width="205"
       y="23"
       x="-120"
       id="badge"
       style="opacity:0.5;fill:#ff0000"
       inkscape:label="#welcome">
      <desc
         id="desc3825">format: png
dpi: 90
layout-disposition: bg-el-norepeat
layout-position-anchor: tl</desc>
    </rect>
  </g>
</svg>
